<svg version="1.1" xmlns="http://www.w3.org/2000/svg" xmlns:xlink="http://www.w3.org/1999/xlink" width="7.78852" height="3.52316" viewBox="0,0,7.78852,3.52316"><g transform="translate(-236.10574,-178.23842)"><g data-paper-data="{&quot;isPaintingLayer&quot;:true}" fill="#000000" fill-rule="nonzero" stroke="none" stroke-width="0.5" stroke-linecap="butt" stroke-linejoin="miter" stroke-miterlimit="10" stroke-dasharray="" stroke-dashoffset="0" style="mix-blend-mode: normal"><path d="M243.89422,180.02087c-0.01349,1.75343 -3.37592,1.74071 -3.37592,1.74071c-1.16564,-0.00441 -3.13827,-0.01188 -4.30392,-0.01629c0,0 -0.01123,-0.00004 -0.0324,-0.00046c0.02273,-0.16201 0.03491,-0.32557 0.03617,-0.4905c0.00182,-0.23672 -0.01887,-0.47077 -0.06101,-0.70162c0.04569,-0.23052 0.06998,-0.46441 0.07181,-0.70112c0.00256,-0.33324 -0.03948,-0.66124 -0.12321,-0.98242c0.05737,-0.20738 0.09733,-0.41774 0.11909,-0.63068c0.01087,-0.00008 0.01653,-0.00006 0.01653,-0.00006c1.16564,0.00441 2.33129,0.00882 3.49693,0.01324l0.80699,0.00306c0,0 3.36243,0.01273 3.34894,1.76616z"/></g></g></svg>