<svg version="1.1" xmlns="http://www.w3.org/2000/svg" xmlns:xlink="http://www.w3.org/1999/xlink" width="42.39282" height="24.62291"><g transform="translate(-227.14285,-167.82857)"><g data-paper-data="{&quot;isPaintingLayer&quot;:true}" fill="#000000" fill-rule="nonzero" stroke="none" stroke-width="none" stroke-linecap="butt" stroke-linejoin="miter" stroke-miterlimit="10" stroke-dasharray="" stroke-dashoffset="0" font-family="none" font-weight="none" font-size="none" text-anchor="none" style="mix-blend-mode: normal"><path d="M230.29728,191.38238l6.43588,-16.53484l3.36433,1.39102l-6.43588,15.20151z" data-paper-data="{&quot;origRot&quot;:0,&quot;origPos&quot;:null}" stroke="#000000" stroke-width="2"/><path d="M228.31621,176.28304c0,0 -0.17336,-2.37198 -0.17336,-4.33399c0,-0.94719 0.57779,-1.76119 1.38688,-2.25367c0.80908,-0.49248 1.21767,-0.8668 2.77375,-0.8668c4.66826,0 30.51131,0 30.51131,0v7.45447z" data-paper-data="{&quot;origPos&quot;:null}" stroke="#000000" stroke-width="2"/><path d="M247.92281,175.2226c0.88708,1.23047 -0.34339,2.11755 -0.34339,2.11755l0.19631,0.09554c-0.26004,0.14447 -0.48635,0.48025 -0.78012,0.4334c-0.18589,-0.02965 0.09482,-0.69888 -0.03602,-0.56355c-0.56168,0.58098 -0.36124,1.59805 -0.75488,2.30378c-1.22275,2.19222 -4.57005,3.15928 -6.81591,3.38387c0,0 -1.50937,0.15094 -1.66031,-1.35844c-0.15094,-1.50937 1.35844,-1.66031 1.35844,-1.66031c4.40193,-0.44019 4.04328,-3.42847 7.21546,-5.19079l-0.49713,0.09554c0,0 1.23047,-0.88708 2.11755,0.34339z" stroke="none" stroke-width="0.5"/><path d="M261.77464,174.02937v-3.12048h6.76103v3.12048z" stroke="#000000" stroke-width="2"/></g></g></svg>