<svg version="1.1" xmlns="http://www.w3.org/2000/svg" xmlns:xlink="http://www.w3.org/1999/xlink" width="42.22688" height="24.64602" viewBox="0,0,42.22688,24.64602"><g transform="translate(-227.96894,-173.68197)"><g data-paper-data="{&quot;isPaintingLayer&quot;:true}" fill="#000000" fill-rule="nonzero" stroke="none" stroke-width="none" stroke-linecap="butt" stroke-linejoin="miter" stroke-miterlimit="10" stroke-dasharray="" stroke-dashoffset="0" font-family="none" font-weight="none" font-size="none" text-anchor="none" style="mix-blend-mode: normal"><path d="M231.13858,197.26202l6.42293,-16.53987l3.36541,1.38839l-6.42399,15.20654z" data-paper-data="{&quot;origRot&quot;:0,&quot;origPos&quot;:null}" stroke="#000000" stroke-width="2"/><path d="M229.14569,182.16422c0,0 -0.17522,-2.37185 -0.17675,-4.33386c-0.00074,-0.94719 0.57641,-1.76164 1.38512,-2.25476c0.80869,-0.49312 1.21699,-0.86775 2.77307,-0.86897c4.66826,-0.00365 30.51131,-0.02388 30.51131,-0.02388l0.00584,7.45446z" data-paper-data="{&quot;origPos&quot;:null,&quot;origRot&quot;:0}" stroke="#000000" stroke-width="2"/><path d="M248.75145,181.08844c0.88804,1.22977 -0.34173,2.11782 -0.34173,2.11782l0.19638,0.09539c-0.25992,0.14467 -0.48597,0.48063 -0.77978,0.43401c-0.18591,-0.02951 0.09427,-0.69896 -0.03646,-0.56353c-0.56123,0.58142 -0.35999,1.59833 -0.75308,2.30437c-1.22104,2.19317 -4.56758,3.16286 -6.81326,3.38921c0,0 -1.50925,0.15212 -1.66137,-1.35715c-0.15212,-1.50925 1.35715,-1.66137 1.35715,-1.66137c4.40158,-0.44363 4.04059,-3.43163 7.21139,-5.19644l-0.49705,0.09593c0,0 1.22977,-0.88804 2.11782,0.34173z" data-paper-data="{&quot;origRot&quot;:0,&quot;origPos&quot;:null}" stroke="none" stroke-width="0.5"/><path d="M262.43401,179.88438l-0.00244,-3.12048l6.76103,-0.00529l0.00244,3.12048z" data-paper-data="{&quot;origRot&quot;:0,&quot;origPos&quot;:null}" stroke="#000000" stroke-width="2"/></g></g></svg>