<svg version="1.1" xmlns="http://www.w3.org/2000/svg" xmlns:xlink="http://www.w3.org/1999/xlink" width="42.04741" height="24.64602" viewBox="0,0,42.04741,24.64602"><g transform="translate(-228.31675,-159.53218)"><g data-paper-data="{&quot;isPaintingLayer&quot;:true}" fill="#000000" fill-rule="nonzero" stroke="none" stroke-width="none" stroke-linecap="butt" stroke-linejoin="miter" stroke-miterlimit="10" stroke-dasharray="" stroke-dashoffset="0" font-family="none" font-weight="none" font-size="none" text-anchor="none" style="mix-blend-mode: normal"><path d="M234.67127,160.54309l6.42399,15.20654l-3.36541,1.38839l-6.42293,-16.53987z" data-paper-data="{&quot;origRot&quot;:0,&quot;origPos&quot;:null,&quot;index&quot;:null}" stroke="#000000" stroke-width="2"/><path d="M263.81262,175.72296l-0.00584,7.45446c0,0 -25.84305,-0.02023 -30.51131,-0.02388c-1.55608,-0.00122 -1.96438,-0.37585 -2.77307,-0.86897c-0.80871,-0.49312 -1.38586,-1.30757 -1.38512,-2.25476c0.00153,-1.96201 0.17675,-4.33386 0.17675,-4.33386z" data-paper-data="{&quot;origPos&quot;:null,&quot;origRot&quot;:0,&quot;index&quot;:null}" stroke="#000000" stroke-width="2"/><path d="M248.9198,176.77176c-0.88805,1.22977 -2.11782,0.34173 -2.11782,0.34173l0.49705,0.09593c-3.1708,-1.76481 -2.80981,-4.75281 -7.21139,-5.19644c0,0 -1.50927,-0.15212 -1.35715,-1.66137c0.15212,-1.50927 1.66137,-1.35715 1.66137,-1.35715c2.24568,0.22635 5.59222,1.19604 6.81326,3.38921c0.39309,0.70604 0.19185,1.72295 0.75308,2.30437c0.13073,0.13543 -0.14945,-0.53402 0.03646,-0.56353c0.29381,-0.04662 0.51986,0.28934 0.77978,0.43401l-0.19638,0.09539c0,0 1.22977,0.88805 0.34173,2.11782z" data-paper-data="{&quot;origRot&quot;:0,&quot;origPos&quot;:null,&quot;index&quot;:null}" stroke="none" stroke-width="0.5"/><path d="M269.36338,177.98108l-0.00244,3.12048l-6.76103,-0.00529l0.00244,-3.12048z" data-paper-data="{&quot;origRot&quot;:0,&quot;origPos&quot;:null,&quot;index&quot;:null}" stroke="#000000" stroke-width="2"/></g></g></svg>