<svg version="1.1" xmlns="http://www.w3.org/2000/svg" xmlns:xlink="http://www.w3.org/1999/xlink" width="25.82162" height="55" viewBox="0,0,25.82162,55"><g transform="translate(-227.08919,-152.5)"><g data-paper-data="{&quot;isPaintingLayer&quot;:true}" fill="none" fill-rule="nonzero" stroke="#000000" stroke-width="2.5" stroke-linecap="none" stroke-linejoin="miter" stroke-miterlimit="10" stroke-dasharray="" stroke-dashoffset="0" font-family="none" font-weight="none" font-size="none" text-anchor="none" style="mix-blend-mode: normal"><path d="M234.91081,161.5c0,-4.2802 3.74962,-7.75 8.375,-7.75c4.62538,0 8.375,3.4698 8.375,7.75c0,4.2802 -3.74962,7.75 -8.375,7.75c-4.62538,0 -8.375,-3.4698 -8.375,-7.75z" data-paper-data="{&quot;origPos&quot;:null}" stroke-linecap="butt"/><path d="M229.66081,205.75l-1,-2l8.5,-6.75l3.75,-9.25l0.75,-18.5l-0.75,18.25l6.5,9.25l0.75,9.25l3.25,0.25" stroke-linecap="round"/><path d="M243.16081,186l-2,-0.5l-7.5,-4l7.5,-5l2.25,5.5l7,1" stroke-linecap="round"/></g></g></svg>