<svg version="1.1" xmlns="http://www.w3.org/2000/svg" xmlns:xlink="http://www.w3.org/1999/xlink" width="22.43535" height="56.5" viewBox="0,0,22.43535,56.5"><g transform="translate(-228.78233,-151.75)"><g data-paper-data="{&quot;isPaintingLayer&quot;:true}" fill="none" fill-rule="nonzero" stroke="#000000" stroke-width="2.5" stroke-linecap="none" stroke-linejoin="miter" stroke-miterlimit="10" stroke-dasharray="" stroke-dashoffset="0" font-family="none" font-weight="none" font-size="none" text-anchor="none" style="mix-blend-mode: normal"><path d="M233.21767,160.75c0,-4.2802 3.74962,-7.75 8.375,-7.75c4.62538,0 8.375,3.4698 8.375,7.75c0,4.2802 -3.74962,7.75 -8.375,7.75c-4.62538,0 -8.375,-3.4698 -8.375,-7.75z" data-paper-data="{&quot;origPos&quot;:null}" stroke-linecap="butt"/><path d="M241.46767,185.25l-2,-0.5l-7.5,-4l7.5,-5l2.25,5.5l7,1" stroke-linecap="round"/><path d="M239.96767,169l-0.5,20.75l-3.25,8.75l-5.75,7l1.5,1.5" stroke-linecap="round"/><path d="M243.21767,206.75l-1.75,-0.25l0.75,-7.75l-2.75,-8.5" stroke-linecap="round"/></g></g></svg>