<svg version="1.1" xmlns="http://www.w3.org/2000/svg" xmlns:xlink="http://www.w3.org/1999/xlink" width="30.93848" height="52.91222" viewBox="0,0,30.93848,52.91222"><g transform="translate(-224.53075,-153.5439)"><g data-paper-data="{&quot;isPaintingLayer&quot;:true}" fill="none" fill-rule="nonzero" stroke="#000000" stroke-width="2.5" stroke-linecap="none" stroke-linejoin="miter" stroke-miterlimit="10" stroke-dasharray="" stroke-dashoffset="0" font-family="none" font-weight="none" font-size="none" text-anchor="none" style="mix-blend-mode: normal"><path d="M237.32269,162.5439c0,-4.2802 3.74962,-7.75 8.375,-7.75c4.62538,0 8.375,3.4698 8.375,7.75c0,4.2802 -3.74962,7.75 -8.375,7.75c-4.62538,0 -8.375,-3.4698 -8.375,-7.75z" data-paper-data="{&quot;origPos&quot;:null}" stroke-linecap="butt"/><path d="M245.57269,187.0439l-2,-0.5l-7.5,-4l7.5,-5l2.25,5.5l7,1" stroke-linecap="round"/><path d="M254.21924,204.35412l-2.07273,0.57341l-2.67744,-8.69735l-6.16369,-5.71261l-0.23269,-0.22367l0.5,-20" stroke-linecap="round"/><path d="M227.82269,203.0439l-1.5,-2.25l9,-5l7.25,-5.5" stroke-linecap="round"/></g></g></svg>