<svg version="1.1" xmlns="http://www.w3.org/2000/svg" xmlns:xlink="http://www.w3.org/1999/xlink" width="59.83156" height="59.83156" viewBox="0,0,59.83156,59.83156"><defs><radialGradient cx="239.60789" cy="157.63476" r="29.91578" gradientUnits="userSpaceOnUse" id="color-1"><stop offset="0" stop-color="#ffffff"/><stop offset="1" stop-color="#ffffff" stop-opacity="0"/></radialGradient><radialGradient cx="237.80164" cy="159.35773" r="2.07894" gradientUnits="userSpaceOnUse" id="color-2"><stop offset="0" stop-color="#cacaca"/><stop offset="1" stop-color="#757575"/></radialGradient><radialGradient cx="237.79052" cy="154.69377" r="0.6397" gradientUnits="userSpaceOnUse" id="color-3"><stop offset="0" stop-color="#cacaca"/><stop offset="1" stop-color="#757575"/></radialGradient><radialGradient cx="239.00766" cy="155.34786" r="0.6397" gradientUnits="userSpaceOnUse" id="color-4"><stop offset="0" stop-color="#cacaca"/><stop offset="1" stop-color="#757575"/></radialGradient><radialGradient cx="239.84944" cy="155.44191" r="0.6397" gradientUnits="userSpaceOnUse" id="color-5"><stop offset="0" stop-color="#cacaca"/><stop offset="1" stop-color="#757575"/></radialGradient></defs><g transform="translate(-210.16482,-126.70603)"><g data-paper-data="{&quot;isPaintingLayer&quot;:true}" fill-rule="nonzero" stroke-linejoin="miter" stroke-miterlimit="10" stroke-dasharray="" stroke-dashoffset="0" style="mix-blend-mode: normal"><path d="M226.56464,136.97637l-4.54644,-5.85937h34.38329l-3.61959,5.42957z" fill="#00ff3a" stroke="#000000" stroke-width="2" stroke-linecap="round"/><path d="M252.64521,177.07032l4.54644,5.85937h-34.38329l3.61959,-5.42958z" fill="#00ff53" stroke="#000000" stroke-width="2" stroke-linecap="round"/><path d="M210.16482,156.62181c0,-16.52203 13.39375,-29.91578 29.91578,-29.91578c16.52203,0 29.91578,13.39375 29.91578,29.91578c0,16.52203 -13.39375,29.91578 -29.91578,29.91578c-16.52203,0 -29.91578,-13.39375 -29.91578,-29.91578z" fill="url(#color-1)" stroke="none" stroke-width="0" stroke-linecap="butt"/><g stroke="none" stroke-width="0" stroke-linecap="butt"><path d="M236.90726,160.71466l0.27956,-7.59538l3.70507,2.29242l-0.27956,7.59538z" fill="url(#color-2)"/><path d="M237.30546,154.52751l0.15453,-4.19857l0.74476,0.4608l-0.15453,4.19857z" fill="url(#color-3)"/><path d="M238.41888,155.19807l0.15453,-4.19857l0.74476,0.4608l-0.15453,4.19857z" fill="url(#color-4)"/><path d="M239.7185,155.98386l0.15453,-4.19857l0.74476,0.4608l-0.15453,4.19857z" fill="url(#color-5)"/></g></g></g></svg>