<svg version="1.1" xmlns="http://www.w3.org/2000/svg" xmlns:xlink="http://www.w3.org/1999/xlink" width="59.83155" height="59.83155" viewBox="0,0,59.83155,59.83155"><defs><radialGradient cx="239.60789" cy="157.63476" r="29.91578" gradientUnits="userSpaceOnUse" id="color-1"><stop offset="0" stop-color="#ffffff"/><stop offset="1" stop-color="#ffffff" stop-opacity="0"/></radialGradient><radialGradient cx="235.50355" cy="158.06652" r="8.52365" gradientUnits="userSpaceOnUse" id="color-2"><stop offset="0" stop-color="#cacaca"/><stop offset="1" stop-color="#757575"/></radialGradient><radialGradient cx="236.24556" cy="153.46174" r="2.62277" gradientUnits="userSpaceOnUse" id="color-3"><stop offset="0" stop-color="#cacaca"/><stop offset="1" stop-color="#757575"/></radialGradient><radialGradient cx="241.05392" cy="154.94845" r="2.62277" gradientUnits="userSpaceOnUse" id="color-4"><stop offset="0" stop-color="#cacaca"/><stop offset="1" stop-color="#757575"/></radialGradient><radialGradient cx="244.43986" cy="155.62349" r="2.62277" gradientUnits="userSpaceOnUse" id="color-5"><stop offset="0" stop-color="#cacaca"/><stop offset="1" stop-color="#757575"/></radialGradient></defs><g transform="translate(-210.16482,-126.70603)"><g data-paper-data="{&quot;isPaintingLayer&quot;:true}" fill-rule="nonzero" stroke-linejoin="miter" stroke-miterlimit="10" stroke-dasharray="" stroke-dashoffset="0" style="mix-blend-mode: normal"><path d="M252.7819,136.54657l3.61959,-5.42957l-34.38329,0l4.54644,5.85937z" fill="#00ff3a" stroke="#000000" stroke-width="2" stroke-linecap="round"/><path d="M226.42795,177.50011l-3.61959,5.42958h34.38329l-4.54644,-5.85937z" fill="#00ff53" stroke="#000000" stroke-width="2" stroke-linecap="round"/><path d="M210.16482,156.62181c0,-16.52203 13.39375,-29.91578 29.91578,-29.91578c16.52203,0 29.91578,13.39375 29.91578,29.91578c0,16.52203 -13.39375,29.91578 -29.91578,29.91578c-16.52203,0 -29.91578,-13.39375 -29.91578,-29.91578z" fill="url(#color-1)" stroke="none" stroke-width="0" stroke-linecap="butt"/><g stroke="none" stroke-width="0" stroke-linecap="butt"><path d="M231.66024,158.78529l2.41132,-7.29308l14.58616,4.82265l-2.41132,7.29308z" fill="url(#color-2)"/><path d="M234.31339,152.96231l1.33293,-4.03147l2.93198,0.9694l-1.33293,4.03147z" fill="url(#color-3)"/><path d="M238.69983,154.39351l1.33293,-4.03147l2.93198,0.9694l-1.33293,4.03147z" fill="url(#color-4)"/><path d="M243.81927,156.06707l1.33293,-4.03147l2.93198,0.9694l-1.33293,4.03147z" fill="url(#color-5)"/></g></g></g></svg>