<svg version="1.1" xmlns="http://www.w3.org/2000/svg" xmlns:xlink="http://www.w3.org/1999/xlink" width="59.83156" height="59.83156" viewBox="0,0,59.83156,59.83156"><defs><radialGradient cx="239.60789" cy="157.63476" r="29.91578" gradientUnits="userSpaceOnUse" id="color-1"><stop offset="0" stop-color="#ffffff"/><stop offset="1" stop-color="#ffffff" stop-opacity="0"/></radialGradient><radialGradient cx="236.0164" cy="159.74374" r="6.92113" gradientUnits="userSpaceOnUse" id="color-2"><stop offset="0" stop-color="#cacaca"/><stop offset="1" stop-color="#757575"/></radialGradient><radialGradient cx="235.97937" cy="155.07978" r="2.12967" gradientUnits="userSpaceOnUse" id="color-3"><stop offset="0" stop-color="#cacaca"/><stop offset="1" stop-color="#757575"/></radialGradient><radialGradient cx="240.03143" cy="155.73387" r="2.12967" gradientUnits="userSpaceOnUse" id="color-4"><stop offset="0" stop-color="#cacaca"/><stop offset="1" stop-color="#757575"/></radialGradient><radialGradient cx="242.83386" cy="155.82792" r="2.12967" gradientUnits="userSpaceOnUse" id="color-5"><stop offset="0" stop-color="#cacaca"/><stop offset="1" stop-color="#757575"/></radialGradient></defs><g transform="translate(-210.16482,-126.70603)"><g data-paper-data="{&quot;isPaintingLayer&quot;:true}" fill-rule="nonzero" stroke-linejoin="miter" stroke-miterlimit="10" stroke-dasharray="" stroke-dashoffset="0" style="mix-blend-mode: normal"><path d="M226.56464,136.97637l-4.54644,-5.85937h34.38329l-3.61959,5.42957z" fill="#00ff3a" stroke="#000000" stroke-width="2" stroke-linecap="round"/><path d="M252.64521,177.07032l4.54644,5.85937h-34.38329l3.61959,-5.42958z" fill="#00ff53" stroke="#000000" stroke-width="2" stroke-linecap="round"/><path d="M210.16482,156.62181c0,-16.52203 13.39375,-29.91578 29.91578,-29.91578c16.52203,0 29.91578,13.39375 29.91578,29.91578c0,16.52203 -13.39375,29.91578 -29.91578,29.91578c-16.52203,0 -29.91578,-13.39375 -29.91578,-29.91578z" fill="url(#color-1)" stroke="none" stroke-width="0" stroke-linecap="butt"/><g stroke="none" stroke-width="0" stroke-linecap="butt"><path d="M233.03885,161.10067l0.9307,-7.59538l12.33478,2.29242l-0.9307,7.59538z" fill="url(#color-2)"/><path d="M234.36453,154.91352l0.51445,-4.19857l2.47943,0.4608l-0.51445,4.19857z" fill="url(#color-3)"/><path d="M238.07129,155.58408l0.51446,-4.19857l2.47943,0.4608l-0.51446,4.19857z" fill="url(#color-4)"/><path d="M242.39793,156.36987l0.51445,-4.19857l2.47943,0.4608l-0.51445,4.19857z" fill="url(#color-5)"/></g></g></g></svg>