<svg version="1.1" xmlns="http://www.w3.org/2000/svg" xmlns:xlink="http://www.w3.org/1999/xlink" width="770.11563" height="608.04675" viewBox="0,0,770.11563,608.04675"><defs><radialGradient cx="151.5" cy="165.5" r="2.5" gradientUnits="userSpaceOnUse" id="color-1"><stop offset="0" stop-color="#333333"/><stop offset="1" stop-color="#7f7f7f"/></radialGradient><radialGradient cx="4.20731" cy="374.16435" r="192.64272" gradientUnits="userSpaceOnUse" id="color-2"><stop offset="0" stop-color="#a0a0a0"/><stop offset="1" stop-color="#7f7f7f"/></radialGradient><radialGradient cx="484.40175" cy="-32.81659" r="195.85015" gradientUnits="userSpaceOnUse" id="color-3"><stop offset="0" stop-color="#bdbdbd"/><stop offset="1" stop-color="#7f7f7f"/></radialGradient><radialGradient cx="-25.93944" cy="-13.43655" r="192.64272" gradientUnits="userSpaceOnUse" id="color-4"><stop offset="0" stop-color="#545454"/><stop offset="1" stop-color="#7f7f7f"/></radialGradient><radialGradient cx="514.54848" cy="430.15115" r="192.64272" gradientUnits="userSpaceOnUse" id="color-5"><stop offset="0" stop-color="#000000"/><stop offset="1" stop-color="#7f7f7f"/></radialGradient></defs><g transform="translate(145.05782,124.02337)"><g data-paper-data="{&quot;isPaintingLayer&quot;:true}" fill-rule="nonzero" stroke="none" stroke-linecap="butt" stroke-linejoin="miter" stroke-miterlimit="10" stroke-dasharray="" stroke-dashoffset="0" style="mix-blend-mode: normal"><path d="M152,166.5c0,-1.38071 1.11929,-2.5 2.5,-2.5c1.38071,0 2.5,1.11929 2.5,2.5c0,1.38071 -1.11929,2.5 -2.5,2.5c-1.38071,0 -2.5,-1.11929 -2.5,-2.5z" fill="url(#color-1)" stroke-width="0.5"/><path d="M253.00001,141.5c0,-1.38071 1.11929,-2.5 2.5,-2.5c1.38071,0 2.5,1.11929 2.5,2.5c0,1.38071 -1.11929,2.5 -2.5,2.5c-1.38071,0 -2.5,-1.11929 -2.5,-2.5z" fill="#7f7f7f" stroke-width="0.5"/><path d="M142,89.50001c0,-1.38071 1.11929,-2.5 2.5,-2.5c1.38071,0 2.5,1.11929 2.5,2.5c0,1.38071 -1.11929,2.5 -2.5,2.5c-1.38071,0 -2.5,-1.11929 -2.5,-2.5z" fill="#7f7f7f" stroke-width="0.5"/><path d="M-145.05782,482.60217v-304.39677h385.28543v304.39679z" fill="url(#color-2)" stroke-width="0"/><path d="M233.35753,185.44148v-309.46486h391.70028v309.46487z" fill="url(#color-3)" stroke-width="0"/><path d="M-144.34721,181.84541v-304.39677h385.28543v304.39679z" fill="url(#color-4)" stroke-width="0"/><path d="M237.50428,484.02337v-304.39677h385.28543v304.39677z" fill="url(#color-5)" stroke-width="0"/></g></g></svg>