<svg version="1.1" xmlns="http://www.w3.org/2000/svg" xmlns:xlink="http://www.w3.org/1999/xlink" width="815.94145" height="644.22864" viewBox="0,0,815.94145,644.22864"><defs><radialGradient cx="151.5" cy="165.5" r="2.5" gradientUnits="userSpaceOnUse" id="color-1"><stop offset="0" stop-color="#333333"/><stop offset="1" stop-color="#7f7f7f"/></radialGradient><radialGradient cx="40.36884" cy="337.80719" r="204.10594" gradientUnits="userSpaceOnUse" id="color-2"><stop offset="0" stop-color="#6c6c6c"/><stop offset="1" stop-color="#7f7f7f"/></radialGradient><radialGradient cx="451.03398" cy="0.14919" r="207.50423" gradientUnits="userSpaceOnUse" id="color-3"><stop offset="0" stop-color="#686868"/><stop offset="1" stop-color="#7f7f7f"/></radialGradient><radialGradient cx="-23.5124" cy="-43.1988" r="204.10594" gradientUnits="userSpaceOnUse" id="color-4"><stop offset="0" stop-color="#0a0a0a"/><stop offset="1" stop-color="#7f7f7f"/></radialGradient><radialGradient cx="489.819" cy="383.43665" r="204.10594" gradientUnits="userSpaceOnUse" id="color-5"><stop offset="0" stop-color="#464646"/><stop offset="1" stop-color="#7f7f7f"/></radialGradient></defs><g transform="translate(167.97072,142.11432)"><g data-paper-data="{&quot;isPaintingLayer&quot;:true}" fill-rule="nonzero" stroke="none" stroke-linecap="butt" stroke-linejoin="miter" stroke-miterlimit="10" stroke-dasharray="" stroke-dashoffset="0" style="mix-blend-mode: normal"><path d="M152,166.5c0,-1.38071 1.11929,-2.5 2.5,-2.5c1.38071,0 2.5,1.11929 2.5,2.5c0,1.38071 -1.11929,2.5 -2.5,2.5c-1.38071,0 -2.5,-1.11929 -2.5,-2.5z" fill="url(#color-1)" stroke-width="0.5"/><path d="M253,141.5c0,-1.38071 1.11929,-2.5 2.5,-2.5c1.38071,0 2.5,1.11929 2.5,2.5c0,1.38071 -1.11929,2.5 -2.5,2.5c-1.38071,0 -2.5,-1.11929 -2.5,-2.5z" fill="#7f7f7f" stroke-width="0.5"/><path d="M142,89.5c0,-1.38071 1.11929,-2.5 2.5,-2.5c1.38071,0 2.5,1.11929 2.5,2.5c0,1.38071 -1.11929,2.5 -2.5,2.5c-1.38071,0 -2.5,-1.11929 -2.5,-2.5z" fill="#7f7f7f" stroke-width="0.5"/><path d="M-167.97072,500.60856v-322.50995h408.2119v322.50996z" fill="url(#color-2)" stroke-width="0"/><path d="M232.96227,185.76528v-327.8796h415.00846v327.87962z" fill="url(#color-3)" stroke-width="0"/><path d="M-167.21783,181.95523v-322.50995h408.2119v322.50996z" fill="url(#color-4)" stroke-width="0"/><path d="M237.35578,502.11432v-322.50995h408.21189v322.50995z" fill="url(#color-5)" stroke-width="0"/></g></g></svg>