<svg version="1.1" xmlns="http://www.w3.org/2000/svg" xmlns:xlink="http://www.w3.org/1999/xlink" width="821.16968" height="648.35661" viewBox="0,0,821.16968,648.35661"><defs><radialGradient cx="151.5" cy="165.5" r="2.5" gradientUnits="userSpaceOnUse" id="color-1"><stop offset="0" stop-color="#333333"/><stop offset="1" stop-color="#7f7f7f"/></radialGradient><radialGradient cx="-25.20089" cy="389.33239" r="205.41378" gradientUnits="userSpaceOnUse" id="color-2"><stop offset="0" stop-color="#bfbfbf"/><stop offset="1" stop-color="#7f7f7f"/></radialGradient><radialGradient cx="525.86114" cy="-7.89149" r="208.83384" gradientUnits="userSpaceOnUse" id="color-3"><stop offset="0" stop-color="#9c9c9c"/><stop offset="1" stop-color="#7f7f7f"/></radialGradient><radialGradient cx="-59.64228" cy="-37.74068" r="205.41378" gradientUnits="userSpaceOnUse" id="color-4"><stop offset="0" stop-color="#545454"/><stop offset="1" stop-color="#7f7f7f"/></radialGradient><radialGradient cx="424.83309" cy="380.14802" r="205.41378" gradientUnits="userSpaceOnUse" id="color-5"><stop offset="0" stop-color="#868686"/><stop offset="1" stop-color="#7f7f7f"/></radialGradient></defs><g transform="translate(170.58484,144.1783)"><g data-paper-data="{&quot;isPaintingLayer&quot;:true}" fill-rule="nonzero" stroke="none" stroke-linecap="butt" stroke-linejoin="miter" stroke-miterlimit="10" stroke-dasharray="" stroke-dashoffset="0" style="mix-blend-mode: normal"><path d="M152,166.5c0,-1.38071 1.11929,-2.5 2.5,-2.5c1.38071,0 2.5,1.11929 2.5,2.5c0,1.38071 -1.11929,2.5 -2.5,2.5c-1.38071,0 -2.5,-1.11929 -2.5,-2.5z" fill="url(#color-1)" stroke-width="0.5"/><path d="M253,141.5c0,-1.38071 1.11929,-2.5 2.5,-2.5c1.38071,0 2.5,1.11929 2.5,2.5c0,1.38071 -1.11929,2.5 -2.5,2.5c-1.38071,0 -2.5,-1.11929 -2.5,-2.5z" fill="#7f7f7f" stroke-width="0.5"/><path d="M142,89.5c0,-1.38071 1.11929,-2.5 2.5,-2.5c1.38071,0 2.5,1.11929 2.5,2.5c0,1.38071 -1.11929,2.5 -2.5,2.5c-1.38071,0 -2.5,-1.11929 -2.5,-2.5z" fill="#7f7f7f" stroke-width="0.5"/><path d="M-170.58484,502.66289v-324.57646h410.82755v324.57648z" fill="url(#color-2)" stroke-width="0"/><path d="M232.91717,185.80222v-329.98052h417.66767v329.98054z" fill="url(#color-3)" stroke-width="0"/><path d="M-169.82712,181.96776v-324.57646h410.82755v324.57648z" fill="url(#color-4)" stroke-width="0"/><path d="M237.33883,504.1783v-324.57646h410.82755v324.57646z" fill="url(#color-5)" stroke-width="0"/></g></g></svg>